#Comment line ignore any data following # character 
#Hierarchical Translation and Rotation (.htr) file 
[Header]	
#Header keywords are followed by a single value 
FileType HTR		#Single word string
DataType HTRS		#Translation followed by rotation and scale data
FileVersion 1		#integer
NumSegments 84		#integer
NumFrames 2		#integer
DataFrameRate 30		#integer, data frame rate in this file
EulerRotationOrder ZYX
CalibrationUnits mm
RotationUnits Degrees
GlobalAxisofGravity Y
BoneLengthAxis Y
ScaleFactor 1.00
[SegmentNames&Hierarchy]
#CHILD	PARENT
MASTER GLOBAL
root MASTER
chest root
L_mid_tent01 root
R_mid_tent01 root
spine01 root
Bip01_Neck chest
L_humerus chest
R_humerus chest
weapon_bone chest
Bip01_Head Bip01_Neck
eye_left_bone Bip01_Head
eye_right_bone Bip01_Head
L_forearm L_humerus
L_front_hand L_forearm
L_weapon_bone L_forearm
L_front_hand01_01 L_front_hand
L_front_hand02_01 L_front_hand
L_front_hand03_01 L_front_hand
L_front_hand01_02 L_front_hand01_01
L_front_hand02_02 L_front_hand02_01
L_front_hand03_02 L_front_hand03_01
R_forearm R_humerus
R_front_hand R_forearm
R_weapon_bone R_forearm
R_front_hand01_01 R_front_hand
R_front_hand02_01 R_front_hand
R_front_hand03_01 R_front_hand
R_front_hand01_02 R_front_hand01_01
R_front_hand02_02 R_front_hand02_01
R_front_hand03_02 R_front_hand03_01
null_rope01_connect L_mid_tent01
Rope1_Seg01 null_rope01_connect
Rope1_Seg02 Rope1_Seg01
Rope1_Seg03 Rope1_Seg02
Rope1_Seg04 Rope1_Seg03
Rope1_Seg05 Rope1_Seg04
Rope1_Seg06 Rope1_Seg05
Rope1_Seg07 Rope1_Seg06
Rope1_Seg09 Rope1_Seg07
L_mid_hand01 Rope1_Seg09
L_mid_hand02 Rope1_Seg09
L_mid_hand03 Rope1_Seg09
null_rope02_connect R_mid_tent01
Rope2_Seg01 null_rope02_connect
Rope2_Seg02 Rope2_Seg01
Rope2_Seg03 Rope2_Seg02
Rope2_Seg04 Rope2_Seg03
Rope2_Seg05 Rope2_Seg04
Rope2_Seg06 Rope2_Seg05
Rope2_Seg07 Rope2_Seg06
Rope2_Seg09 Rope2_Seg07
R_mid_hand01 Rope2_Seg09
R_mid_hand02 Rope2_Seg09
R_mid_hand03 Rope2_Seg09
spine02 spine01
spine03 spine02
pelvis spine03
null_rope03_connect pelvis
null_rope04_connect pelvis
Rope3_Seg01 null_rope03_connect
Rope3_Seg02 Rope3_Seg01
Rope3_Seg03 Rope3_Seg02
Rope3_Seg04 Rope3_Seg03
Rope3_Seg05 Rope3_Seg04
Rope3_Seg06 Rope3_Seg05
Rope3_Seg07 Rope3_Seg06
Rope3_Seg08 Rope3_Seg07
Rope3_Seg09 Rope3_Seg08
R_rear_hand01 Rope3_Seg09
R_rear_hand02 Rope3_Seg09
R_rear_hand03 Rope3_Seg09
Rope4_Seg01 null_rope04_connect
Rope4_Seg02 Rope4_Seg01
Rope4_Seg03 Rope4_Seg02
Rope4_Seg04 Rope4_Seg03
Rope4_Seg05 Rope4_Seg04
Rope4_Seg06 Rope4_Seg05
Rope4_Seg07 Rope4_Seg06
Rope4_Seg08 Rope4_Seg07
Rope4_Seg09 Rope4_Seg08
L_rear_hand01 Rope4_Seg09
L_rear_hand02 Rope4_Seg09
L_rear_hand03 Rope4_Seg09
[BasePosition]
#SegmentName Tx, Ty, Tz, Rx, Ry, Rz, BoneLength
MASTER 0.000000 0.000000 0.000000 -90.000000 0.000000 0.000000 10.000000 
root 0.000000 0.000000 0.000000 0.000000 0.000000 0.000000 10.000000 
chest 0.000000 0.000000 0.000000 0.000000 0.000000 0.000000 10.000000 
L_mid_tent01 0.000000 0.000000 0.000000 0.000000 0.000000 0.000000 10.000000 
R_mid_tent01 0.000000 0.000000 0.000000 0.000000 0.000000 0.000000 10.000000 
spine01 0.000000 0.000000 0.000000 0.000000 0.000000 0.000000 10.000000 
Bip01_Neck 0.000000 0.000000 0.000000 0.000000 0.000000 0.000000 10.000000 
L_humerus 0.000000 0.000000 0.000000 0.000000 0.000000 0.000000 10.000000 
R_humerus 0.000000 0.000000 0.000000 0.000000 0.000000 0.000000 10.000000 
weapon_bone 0.000000 0.000000 0.000000 0.000000 0.000000 0.000000 10.000000 
Bip01_Head 0.000000 0.000000 0.000000 0.000000 0.000000 0.000000 10.000000 
eye_left_bone 0.000000 0.000000 0.000000 0.000000 0.000000 0.000000 10.000000 
eye_right_bone 0.000000 0.000000 0.000000 0.000000 0.000000 0.000000 10.000000 
L_forearm 0.000000 0.000000 0.000000 0.000000 0.000000 0.000000 10.000000 
L_front_hand 0.000000 0.000000 0.000000 0.000000 0.000000 0.000000 10.000000 
L_weapon_bone 0.000000 0.000000 0.000000 0.000000 0.000000 0.000000 10.000000 
L_front_hand01_01 0.000000 0.000000 0.000000 0.000000 0.000000 0.000000 10.000000 
L_front_hand02_01 0.000000 0.000000 0.000000 0.000000 0.000000 0.000000 10.000000 
L_front_hand03_01 0.000000 0.000000 0.000000 0.000000 0.000000 0.000000 10.000000 
L_front_hand01_02 0.000000 0.000000 0.000000 0.000000 0.000000 0.000000 10.000000 
L_front_hand02_02 0.000000 0.000000 0.000000 0.000000 0.000000 0.000000 10.000000 
L_front_hand03_02 0.000000 0.000000 0.000000 0.000000 0.000000 0.000000 10.000000 
R_forearm 0.000000 0.000000 0.000000 0.000000 0.000000 0.000000 10.000000 
R_front_hand 0.000000 0.000000 0.000000 0.000000 0.000000 0.000000 10.000000 
R_weapon_bone 0.000000 0.000000 0.000000 0.000000 0.000000 0.000000 10.000000 
R_front_hand01_01 0.000000 0.000000 0.000000 0.000000 0.000000 0.000000 10.000000 
R_front_hand02_01 0.000000 0.000000 0.000000 0.000000 0.000000 0.000000 10.000000 
R_front_hand03_01 0.000000 0.000000 0.000000 0.000000 0.000000 0.000000 10.000000 
R_front_hand01_02 0.000000 0.000000 0.000000 0.000000 0.000000 0.000000 10.000000 
R_front_hand02_02 0.000000 0.000000 0.000000 0.000000 0.000000 0.000000 10.000000 
R_front_hand03_02 0.000000 0.000000 0.000000 0.000000 0.000000 0.000000 10.000000 
null_rope01_connect 0.000000 0.000000 0.000000 0.000000 0.000000 0.000000 10.000000 
Rope1_Seg01 0.000000 0.000000 0.000000 0.000000 0.000000 0.000000 10.000000 
Rope1_Seg02 0.000000 0.000000 0.000000 0.000000 0.000000 0.000000 10.000000 
Rope1_Seg03 0.000000 0.000000 0.000000 0.000000 0.000000 0.000000 10.000000 
Rope1_Seg04 0.000000 0.000000 0.000000 0.000000 0.000000 0.000000 10.000000 
Rope1_Seg05 0.000000 0.000000 0.000000 0.000000 0.000000 0.000000 10.000000 
Rope1_Seg06 0.000000 0.000000 0.000000 0.000000 0.000000 0.000000 10.000000 
Rope1_Seg07 0.000000 0.000000 0.000000 0.000000 0.000000 0.000000 10.000000 
Rope1_Seg09 0.000000 0.000000 0.000000 0.000000 0.000000 0.000000 10.000000 
L_mid_hand01 0.000000 0.000000 0.000000 0.000000 0.000000 0.000000 10.000000 
L_mid_hand02 0.000000 0.000000 0.000000 0.000000 0.000000 0.000000 10.000000 
L_mid_hand03 0.000000 0.000000 0.000000 0.000000 0.000000 0.000000 10.000000 
null_rope02_connect 0.000000 0.000000 0.000000 0.000000 0.000000 0.000000 10.000000 
Rope2_Seg01 0.000000 0.000000 0.000000 0.000000 0.000000 0.000000 10.000000 
Rope2_Seg02 0.000000 0.000000 0.000000 0.000000 0.000000 0.000000 10.000000 
Rope2_Seg03 0.000000 0.000000 0.000000 0.000000 0.000000 0.000000 10.000000 
Rope2_Seg04 0.000000 0.000000 0.000000 0.000000 0.000000 0.000000 10.000000 
Rope2_Seg05 0.000000 0.000000 0.000000 0.000000 0.000000 0.000000 10.000000 
Rope2_Seg06 0.000000 0.000000 0.000000 0.000000 0.000000 0.000000 10.000000 
Rope2_Seg07 0.000000 0.000000 0.000000 0.000000 0.000000 0.000000 10.000000 
Rope2_Seg09 0.000000 0.000000 0.000000 0.000000 0.000000 0.000000 10.000000 
R_mid_hand01 0.000000 0.000000 0.000000 0.000000 0.000000 0.000000 10.000000 
R_mid_hand02 0.000000 0.000000 0.000000 0.000000 0.000000 0.000000 10.000000 
R_mid_hand03 0.000000 0.000000 0.000000 0.000000 0.000000 0.000000 10.000000 
spine02 0.000000 0.000000 0.000000 0.000000 0.000000 0.000000 10.000000 
spine03 0.000000 0.000000 0.000000 0.000000 0.000000 0.000000 10.000000 
pelvis 0.000000 0.000000 0.000000 0.000000 0.000000 0.000000 10.000000 
null_rope03_connect 0.000000 0.000000 0.000000 0.000000 0.000000 0.000000 10.000000 
null_rope04_connect 0.000000 0.000000 0.000000 0.000000 0.000000 0.000000 10.000000 
Rope3_Seg01 0.000000 0.000000 0.000000 0.000000 0.000000 0.000000 10.000000 
Rope3_Seg02 0.000000 0.000000 0.000000 0.000000 0.000000 0.000000 10.000000 
Rope3_Seg03 0.000000 0.000000 0.000000 0.000000 0.000000 0.000000 10.000000 
Rope3_Seg04 0.000000 0.000000 0.000000 0.000000 0.000000 0.000000 10.000000 
Rope3_Seg05 0.000000 0.000000 0.000000 0.000000 0.000000 0.000000 10.000000 
Rope3_Seg06 0.000000 0.000000 0.000000 0.000000 0.000000 0.000000 10.000000 
Rope3_Seg07 0.000000 0.000000 0.000000 0.000000 0.000000 0.000000 10.000000 
Rope3_Seg08 0.000000 0.000000 0.000000 0.000000 0.000000 0.000000 10.000000 
Rope3_Seg09 0.000000 0.000000 0.000000 0.000000 0.000000 0.000000 10.000000 
R_rear_hand01 0.000000 0.000000 0.000000 0.000000 0.000000 0.000000 10.000000 
R_rear_hand02 0.000000 0.000000 0.000000 0.000000 0.000000 0.000000 10.000000 
R_rear_hand03 0.000000 0.000000 0.000000 0.000000 0.000000 0.000000 10.000000 
Rope4_Seg01 0.000000 0.000000 0.000000 0.000000 0.000000 0.000000 10.000000 
Rope4_Seg02 0.000000 0.000000 0.000000 0.000000 0.000000 0.000000 10.000000 
Rope4_Seg03 0.000000 0.000000 0.000000 0.000000 0.000000 0.000000 10.000000 
Rope4_Seg04 0.000000 0.000000 0.000000 0.000000 0.000000 0.000000 10.000000 
Rope4_Seg05 0.000000 0.000000 0.000000 0.000000 0.000000 0.000000 10.000000 
Rope4_Seg06 0.000000 0.000000 0.000000 0.000000 0.000000 0.000000 10.000000 
Rope4_Seg07 0.000000 0.000000 0.000000 0.000000 0.000000 0.000000 10.000000 
Rope4_Seg08 0.000000 0.000000 0.000000 0.000000 0.000000 0.000000 10.000000 
Rope4_Seg09 0.000000 0.000000 0.000000 0.000000 0.000000 0.000000 10.000000 
L_rear_hand01 0.000000 0.000000 0.000000 0.000000 0.000000 0.000000 10.000000 
L_rear_hand02 0.000000 0.000000 0.000000 0.000000 0.000000 0.000000 10.000000 
L_rear_hand03 0.000000 0.000000 0.000000 0.000000 0.000000 0.000000 10.000000 
#Beginning of Data. Separated by tabs
#Fr	Tx	Ty	Tz	Rx	Ry	Rz	SF
[MASTER]
25 0.000000 0.000000 0.000000 0.001660 0.001660 0.001660 0.000000
26 0.000000 0.000000 0.000000 0.001660 0.001660 0.001660 0.000000
[root]
25 -28.267206 -56.688507 1501.442505 -78.460297 -39.498295 -87.721840 1502.778198
26 -28.075918 -56.714516 1501.419189 -78.259094 -39.157188 -87.903481 1502.752197
[chest]
25 -84.512650 -34.090519 0.000000 -3.365751 -1.110409 -177.648239 91.129311
26 -84.512650 -34.090519 0.000000 -2.985098 -0.553716 -179.160995 91.129311
[L_mid_tent01]
25 27.299185 22.179106 -249.918701 3.501690 31.373539 80.895348 252.381699
26 27.299189 22.179106 -249.918701 3.673736 33.872543 81.115837 252.381699
[R_mid_tent01]
25 23.228794 24.509907 226.238495 160.432037 -47.061234 87.899773 228.744751
26 23.228794 24.509907 226.238495 160.432037 -47.061241 87.899765 228.744751
[spine01]
25 -0.361383 -0.195265 0.000000 0.002062 0.001122 32.879829 0.410763
26 -0.361383 -0.195265 0.000000 0.002062 0.001122 32.879829 0.410763
[Bip01_Neck]
25 165.484543 71.581718 0.000119 176.643677 -1.657967 43.431911 180.302734
26 165.484543 71.581718 0.000119 176.643677 -1.657967 43.431911 180.302734
[L_humerus]
25 -13.983130 -135.272980 -120.471481 156.317398 70.210068 -112.010254 181.680161
26 -13.983130 -135.272980 -120.471481 156.317398 70.210068 -112.010254 181.680161
[R_humerus]
25 -13.983309 -135.273102 125.287651 -172.382263 -66.903831 -92.553993 184.909012
26 -13.983309 -135.273102 125.287651 -172.382263 -66.903831 -92.553993 184.909012
[weapon_bone]
25 235.964890 -300.705902 0.000000 0.000000 -89.951546 -128.212341 382.234833
26 235.964890 -300.705902 0.000000 0.000000 -89.951546 -128.212341 382.234833
[Bip01_Head]
25 213.444336 185.715622 11.776942 -5.466854 3.270306 -43.891464 283.173920
26 213.444351 185.715622 11.776942 -6.864579 3.280807 -43.893002 283.173950
[eye_left_bone]
25 -24.626970 125.451866 -64.772606 0.000000 -90.000000 -99.840431 143.318359
26 -24.626970 125.451866 -64.772606 0.000000 -90.000000 -99.840431 143.318359
[eye_right_bone]
25 -24.626970 125.451866 64.327362 0.000000 -89.965736 80.156380 143.117676
26 -24.626970 125.451866 64.327362 0.000000 -89.965736 80.156380 143.117676
[L_forearm]
25 322.776093 0.000000 -0.000119 0.000396 -0.002314 -109.419975 322.776093
26 322.776093 0.000000 -0.000119 0.000396 -0.002314 -109.419975 322.776093
[L_front_hand]
25 241.149185 -0.042021 -3.300071 -178.667953 -1.835447 -27.422350 241.171753
26 241.149185 -0.042021 -3.300071 -178.667953 -1.835447 -27.422350 241.171753
[L_weapon_bone]
25 156.183838 0.000000 0.000000 0.000014 0.000007 0.000001 156.183838
26 156.183838 0.000000 0.000000 0.000014 0.000007 0.000001 156.183838
[L_front_hand01_01]
25 86.095154 20.947098 -0.655860 -0.336357 -0.499387 72.004753 88.609184
26 86.095154 20.947098 -0.655860 -0.343298 -0.494452 72.684830 88.609184
[L_front_hand02_01]
25 86.935165 -11.437475 24.513514 149.419998 -58.295208 -55.567364 91.046425
26 86.935165 -11.437475 24.513514 150.381821 -58.634865 -56.693268 91.046425
[L_front_hand03_01]
25 86.637497 -14.123976 -20.424902 -149.286362 56.508770 -57.202557 90.126129
26 86.637497 -14.123976 -20.424902 -150.184570 56.852535 -58.280544 90.126129
[L_front_hand01_02]
25 71.020905 -0.000179 0.000030 0.000322 -0.002325 -105.759422 71.020905
26 71.020905 -0.000179 0.000030 0.000323 -0.002325 -105.811508 71.020905
[L_front_hand02_02]
25 71.020927 -0.000119 0.000060 0.000322 -0.002325 -105.759422 71.020927
26 71.020927 -0.000119 0.000060 0.000323 -0.002325 -105.811508 71.020927
[L_front_hand03_02]
25 71.020905 -0.000060 0.000060 0.000322 -0.002325 -105.759422 71.020905
26 71.020905 -0.000060 0.000060 0.000323 -0.002325 -105.811508 71.020905
[R_forearm]
25 322.776428 -0.000060 0.000030 0.202103 0.065158 -108.062805 322.776428
26 322.776428 -0.000060 0.000030 0.202103 0.065158 -108.062805 322.776428
[R_front_hand]
25 238.847015 -0.006795 2.210259 -2.635298 -10.645461 -26.312506 238.857239
26 238.847015 -0.006795 2.210259 -2.635298 -10.645461 -26.312506 238.857239
[R_weapon_bone]
25 155.664093 0.002503 -0.000030 0.003487 0.001180 -90.988930 155.664078
26 155.664093 0.002503 -0.000030 0.003487 0.001180 -90.988930 155.664078
[R_front_hand01_01]
25 87.624611 14.231146 22.918642 -154.633499 -59.950619 61.746044 91.683487
26 87.624611 14.231146 22.918642 -154.633499 -59.950619 61.746044 91.683487
[R_front_hand02_01]
25 89.356956 14.367283 -19.491137 154.602661 58.302849 63.744389 92.579636
26 89.356956 14.367283 -19.491137 154.602661 58.302849 63.744389 92.579636
[R_front_hand03_01]
25 87.286232 -22.307278 -0.143439 0.162155 -0.423168 -75.767921 90.091743
26 87.286232 -22.307278 -0.143439 0.162155 -0.423168 -75.767921 90.091743
[R_front_hand01_02]
25 71.020905 0.000060 0.000119 0.002323 -0.000334 106.381714 71.020905
26 71.020905 0.000060 0.000119 0.002323 -0.000334 106.381714 71.020905
[R_front_hand02_02]
25 71.020844 -0.000030 -0.000119 0.002323 -0.000334 106.381714 71.020836
26 71.020844 -0.000030 -0.000119 0.002323 -0.000334 106.381714 71.020836
[R_front_hand03_02]
25 71.020905 0.000000 0.000030 0.002323 -0.000334 106.381714 71.020905
26 71.020905 0.000000 0.000030 0.002323 -0.000334 106.381714 71.020905
[null_rope01_connect]
25 328.732483 0.000000 -0.000238 -119.679794 -71.349327 168.584503 328.732483
26 328.732483 0.000000 -0.000238 -120.879433 -68.900764 169.307907 328.732483
[Rope1_Seg01]
25 -0.000021 0.000004 0.000017 108.876137 7.246300 -158.922714 0.000027
26 -0.000020 0.000003 0.000011 110.031517 8.283485 -159.162460 0.000024
[Rope1_Seg02]
25 139.999863 -0.000179 0.000000 18.785915 -12.135064 -10.710979 139.999863
26 139.999863 -0.000179 0.000000 19.876595 -13.803149 -10.794132 139.999863
[Rope1_Seg03]
25 139.999924 0.000060 -0.000060 26.568874 -25.913311 -15.118898 139.999924
26 139.999924 0.000060 -0.000060 24.732212 -27.337856 -13.658031 139.999924
[Rope1_Seg04]
25 139.999924 -0.000060 -0.000119 9.224660 -29.670380 -0.865924 139.999924
26 139.999924 -0.000060 -0.000119 6.197602 -29.414930 2.362894 139.999924
[Rope1_Seg05]
25 139.999832 0.000119 -0.000060 -4.791976 -25.260307 19.292130 139.999832
26 139.999832 0.000119 -0.000060 -5.491141 -25.455006 19.583807 139.999832
[Rope1_Seg06]
25 139.999954 0.000119 -0.000060 -3.603896 -14.372728 10.153092 139.999954
26 139.999954 0.000119 -0.000060 -3.638861 -12.905290 8.302455 139.999954
[Rope1_Seg07]
25 139.999985 0.000060 0.000000 -2.461831 -6.811726 3.741584 139.999985
26 139.999985 0.000060 0.000000 -2.471021 -6.217535 3.192949 139.999985
[Rope1_Seg09]
25 121.602913 0.000119 -0.000089 -89.793175 -1.359789 0.847147 121.602913
26 121.602913 0.000119 -0.000089 -89.793175 -1.359789 0.847147 121.602913
[L_mid_hand01]
25 103.859421 1.038730 8.195221 130.544373 -67.584534 -38.866943 104.187431
26 103.859421 1.038730 8.195221 130.544373 -67.584534 -38.866943 104.187431
[L_mid_hand02]
25 105.572853 -4.139662 -10.864139 -168.923172 43.409309 -73.498886 106.211075
26 105.572853 -4.139662 -10.864139 -168.923172 43.409309 -73.498894 106.211075
[L_mid_hand03]
25 104.641464 17.579376 -3.913581 -6.012627 17.808178 74.893677 106.179977
26 104.641464 17.579376 -3.913581 -6.012627 17.808174 74.893669 106.179977
[null_rope02_connect]
25 328.732849 0.000179 -0.000119 -115.513733 27.513895 12.239204 328.732849
26 328.732849 0.000179 -0.000119 -115.943283 27.506416 12.066982 328.732849
[Rope2_Seg01]
25 -0.000127 0.000091 0.000000 -52.036961 13.516325 -7.559843 0.000156
26 -0.000136 0.000090 0.000000 -47.439903 10.117113 -6.907846 0.000163
[Rope2_Seg02]
25 139.999741 -0.000060 -0.000119 -13.077816 -0.268026 11.576167 139.999756
26 139.999741 -0.000060 -0.000119 -13.464674 -0.808787 13.163471 139.999756
[Rope2_Seg03]
25 140.000107 0.000030 0.000000 -13.805648 -6.131583 20.012432 140.000107
26 140.000107 0.000030 0.000000 -12.836091 -7.880519 21.260010 140.000107
[Rope2_Seg04]
25 139.999802 0.000000 -0.000060 -8.476007 -14.557184 22.930304 139.999802
26 139.999802 0.000000 -0.000060 -6.641031 -13.891021 20.941868 139.999802
[Rope2_Seg05]
25 139.999985 -0.000060 0.000119 -2.051734 -3.803215 31.056936 139.999985
26 139.999985 -0.000060 0.000119 -0.544104 -2.110864 30.812654 139.999985
[Rope2_Seg06]
25 139.999893 -0.000030 -0.000119 4.929503 -1.626355 26.802475 139.999893
26 139.999893 -0.000030 -0.000119 6.329155 -0.144942 29.129524 139.999893
[Rope2_Seg07]
25 139.999893 0.000060 -0.000060 3.972199 -0.603803 11.963634 139.999893
26 139.999893 0.000060 -0.000060 4.565226 0.383148 12.868384 139.999893
[Rope2_Seg09]
25 121.338966 0.000089 -0.000060 33.793236 -1.359788 -0.847141 121.338966
26 121.338966 0.000089 -0.000060 33.793236 -1.359788 -0.847141 121.338966
[R_mid_hand01]
25 104.680779 11.144459 -10.335981 -16.212063 45.237247 70.462852 105.778534
26 104.680779 11.144459 -10.335981 -16.212063 45.237247 70.462852 105.778534
[R_mid_hand02]
25 104.070427 2.443552 8.231699 49.067368 -67.749771 39.286453 104.424065
26 104.070427 2.443552 8.231699 49.067368 -67.749771 39.286453 104.424065
[R_mid_hand03]
25 106.028137 -11.221827 -5.996406 -177.101105 15.551026 -76.585571 106.788818
26 106.028137 -11.221827 -5.996406 -177.101105 15.551026 -76.585571 106.788818
[spine02]
25 129.756927 0.001550 0.000119 0.360061 -4.044797 -12.915058 129.756927
26 129.756927 0.001550 0.000119 0.360061 -4.044797 -12.915058 129.756927
[spine03]
25 78.614067 0.081635 -4.899014 1.896495 3.831288 16.473045 78.766602
26 78.614067 0.081635 -4.899015 1.896495 3.831288 16.473045 78.766602
[pelvis]
25 169.435242 0.051022 0.000000 -0.060465 -0.180225 14.087930 169.435257
26 169.435242 0.051022 0.000000 -0.060465 -0.180225 14.087930 169.435257
[null_rope03_connect]
25 -1.257226 -2.466202 137.391083 45.014118 -75.876549 33.731216 137.418976
26 -1.257226 -2.466202 137.391083 44.113632 -75.816231 34.300884 137.418976
[null_rope04_connect]
25 -1.259640 -2.480268 -137.844437 45.014118 -75.876549 33.731216 137.872513
26 -1.259640 -2.480268 -137.844437 44.113632 -75.816231 34.300884 137.872513
[Rope3_Seg01]
25 0.000010 0.000004 -0.000017 93.015686 -78.677299 40.322079 0.000020
26 0.000010 0.000003 -0.000011 90.144218 -78.426620 42.964355 0.000015
[Rope3_Seg02]
25 139.999924 -0.000119 0.000060 8.292539 -16.153551 -1.031869 139.999924
26 139.999924 -0.000119 0.000060 6.950368 -14.041862 -1.479350 139.999924
[Rope3_Seg03]
25 139.999924 -0.000119 0.000119 17.753000 -23.699709 4.008737 139.999924
26 139.999924 -0.000119 0.000119 15.753770 -21.363316 1.543790 139.999924
[Rope3_Seg04]
25 139.999924 0.000119 0.000000 16.329460 -18.657810 13.804461 139.999924
26 139.999924 0.000119 0.000000 18.199728 -20.077862 12.411654 139.999924
[Rope3_Seg05]
25 139.999924 -0.000238 0.000060 14.636460 -18.559175 2.104428 139.999924
26 139.999924 -0.000238 0.000060 15.836249 -18.365938 2.539787 139.999924
[Rope3_Seg06]
25 139.999893 -0.000119 -0.000060 20.532846 -20.105349 0.758205 139.999893
26 139.999893 -0.000119 -0.000060 24.677204 -22.155182 -0.015339 139.999893
[Rope3_Seg07]
25 139.999771 0.000060 -0.000119 12.180323 -8.451956 5.659966 139.999771
26 139.999771 0.000060 -0.000119 15.389805 -9.858289 6.852798 139.999771
[Rope3_Seg08]
25 139.999985 -0.000060 0.000000 6.520127 -3.804600 4.068223 139.999985
26 139.999985 -0.000060 0.000000 7.585085 -3.960486 5.047575 139.999985
[Rope3_Seg09]
25 90.185997 -0.000179 -0.000060 89.793228 -1.359877 -0.847183 90.185997
26 90.185997 -0.000179 -0.000060 89.793228 -1.359877 -0.847183 90.185997
[R_rear_hand01]
25 103.366196 -6.073594 -10.757982 -177.714203 24.565960 -73.910950 104.101845
26 103.366196 -6.073594 -10.757982 -177.714203 24.565960 -73.910950 104.101845
[R_rear_hand02]
25 100.509819 12.039542 -7.992327 -12.874829 36.868488 72.167213 101.543350
26 100.509819 12.039542 -7.992327 -12.874829 36.868488 72.167213 101.543350
[R_rear_hand03]
25 101.539970 5.215704 5.435467 71.484581 -71.816628 21.513813 101.819031
26 101.539970 5.215704 5.435467 71.484581 -71.816628 21.513813 101.819031
[Rope4_Seg01]
25 0.000010 0.000038 -0.000114 80.143700 -46.642384 -137.385117 0.000121
26 0.000010 0.000038 -0.000114 74.048920 -44.045048 -131.971497 0.000121
[Rope4_Seg02]
25 139.999985 0.000060 0.000119 -12.230622 -1.147987 -16.573166 139.999985
26 139.999985 0.000060 0.000119 -9.067090 -5.546191 -15.554148 139.999985
[Rope4_Seg03]
25 139.999924 0.000000 -0.000238 -31.746590 5.730202 -32.057846 139.999924
26 139.999924 0.000000 -0.000238 -30.015940 -3.654474 -28.554089 139.999924
[Rope4_Seg04]
25 139.999985 0.000000 0.000119 -20.717028 18.148252 -20.634989 139.999985
26 139.999985 0.000000 0.000119 -29.969183 10.351989 -22.687878 139.999985
[Rope4_Seg05]
25 139.999802 -0.000060 -0.000119 -16.150124 20.158657 -23.751801 139.999802
26 139.999802 -0.000060 -0.000119 -27.190010 16.436953 -25.242550 139.999802
[Rope4_Seg06]
25 139.999924 0.000000 0.000060 -10.633355 28.099072 -25.822588 139.999924
26 139.999924 0.000000 0.000060 -16.569048 26.023689 -20.127996 139.999924
[Rope4_Seg07]
25 139.999802 0.000000 0.000000 0.603268 12.221776 -7.873663 139.999802
26 139.999802 0.000000 0.000000 -1.955762 12.783460 -4.842655 139.999802
[Rope4_Seg08]
25 139.999924 0.000000 0.000119 -0.508365 5.198253 -3.487533 139.999924
26 139.999924 0.000000 0.000119 -1.708108 5.895494 -2.037796 139.999924
[Rope4_Seg09]
25 90.185791 0.000060 0.000060 -135.617828 2.228885 0.850567 90.185791
26 90.185791 0.000060 0.000060 -135.617828 2.228885 0.850567 90.185791
[L_rear_hand01]
25 101.696655 -8.392275 -7.654577 -12.874829 -36.868488 107.832764 102.329041
26 101.696655 -8.392275 -7.654577 -12.874829 -36.868488 107.832764 102.329041
[L_rear_hand02]
25 102.726799 -1.568258 5.773216 71.484581 71.816628 158.486160 102.900848
26 102.726799 -1.568258 5.773216 71.484581 71.816628 158.486160 102.900848
[L_rear_hand03]
25 104.552910 9.721220 -10.420293 -177.714203 -24.565960 -106.089035 105.519653
26 104.552910 9.721220 -10.420293 -177.714203 -24.565960 -106.089035 105.519653
